# xmcd
#
# Track frame offsets:
#	150
#	2196
#	23491
#	40909
#	66542
#	85078
#	114091
#	135699
#	154087
#
# Disc length: 2658 seconds
#
# Revision: 1
# Processed by: cddbd v1.5.2PL0 Copyright (c) Steve Scherf et al.
# Submitted via: audiograbber 1.83.01
#
DISCID=680a6009
DTITLE=NRPS - 71-12-05 Felt Forum, Madison Square Garden, New York NY
DYEAR=1900
DGENRE=
TTITLE0=Bill Graham Intro
TTITLE1=Six Days On The Road
TTITLE2=Rainbow
TTITLE3=Fair Chance To Know
TTITLE4=I Don't Know You
TTITLE5=Lochinvar
TTITLE6=Down In The Boondocks
TTITLE7=Truck Driving Man
TTITLE8=Diry Business
EXTD=
EXTT0=
EXTT1=
EXTT2=
EXTT3=
EXTT4=
EXTT5=
EXTT6=
EXTT7=
EXTT8=
PLAYORDER=
